<svg xmlns="http://www.w3.org/2000/svg" xmlns:xlink="http://www.w3.org/1999/xlink" viewBox="0 0 64 64" version="1.1" width="128" height="128">
<g id="surface1">
<path style=" fill:#F6D397;" d="M 41 49 C 41 56.730469 34.730469 63 27 63 C 19.269531 63 13 56.730469 13 49 C 13 41.269531 19.269531 35 27 35 C 34.730469 35 41 41.269531 41 49 Z "/>
<path style=" fill:#FFEFCA;" d="M 60.859375 35.070313 C 60.859375 46.078125 51.9375 55 40.929688 55 C 29.921875 55 21 46.078125 21 35.070313 C 21 24.0625 29.921875 15.140625 40.929688 15.140625 C 51.9375 15.140625 60.859375 24.0625 60.859375 35.070313 Z "/>
<path style=" fill:#F9E3AE;" d="M 43.859375 25 C 43.859375 35.417969 35.417969 43.859375 25 43.859375 C 14.582031 43.859375 6.140625 35.417969 6.140625 25 C 6.140625 14.582031 14.582031 6.140625 25 6.140625 C 35.417969 6.140625 43.859375 14.582031 43.859375 25 Z "/>
<path style=" fill:#FFEFCA;" d="M 9.328125 43.25 C 11.601563 45.414063 14.273438 47.113281 17.199219 48.25 L 46.429688 19 L 46.429688 13.488281 C 45.523438 11.988281 44.457031 10.589844 43.25 9.320313 Z "/>
<path style=" fill:#FFEFCA;" d="M 7.648438 41.488281 L 41.289063 7.859375 L 36.140625 7.859375 L 5.46875 38.53125 C 6.121094 39.570313 6.847656 40.558594 7.648438 41.488281 Z "/>
<path style=" fill:#FFEFCA;" d="M 5.109375 35.460938 L 33.570313 7 L 31 5.289063 L 3.878906 32.398438 C 4.21875 33.445313 4.628906 34.46875 5.109375 35.460938 Z "/>
<path style=" fill:#F6D397;" d="M 25 1 C 11.746094 1 1 11.746094 1 25 C 1 38.253906 11.746094 49 25 49 C 38.253906 49 49 38.253906 49 25 C 49 11.746094 38.253906 1 25 1 Z M 25 43.859375 C 16.519531 43.867188 9.074219 38.210938 6.808594 30.035156 C 4.546875 21.859375 8.015625 13.179688 15.292969 8.820313 C 22.570313 4.460938 31.859375 5.496094 38 11.351563 L 38.578125 11.929688 C 38.800781 12.164063 39.015625 12.398438 39.230469 12.640625 C 44.070313 18.214844 45.207031 26.105469 42.144531 32.820313 C 39.082031 39.539063 32.382813 43.855469 25 43.859375 Z "/>
<path style=" fill:#FFF8F8;" d="M 13.28125 20.28125 L 14.351563 22.21875 L 16.289063 23.28125 L 14.351563 24.339844 L 13.28125 26.289063 L 12.21875 24.339844 L 10.28125 23.28125 L 12.21875 22.21875 Z "/>
<path style=" fill:#FFF8F8;" d="M 35.589844 29.03125 L 36.089844 29.949219 L 37 30.449219 L 36.089844 30.941406 L 35.589844 31.859375 L 35.089844 30.941406 L 34.171875 30.449219 L 35.089844 29.949219 Z "/>
<path style=" fill:#FFF8F8;" d="M 35.421875 15 L 36.269531 16.558594 L 37.839844 17.421875 L 36.269531 18.269531 L 35.421875 19.839844 L 34.558594 18.269531 L 33 17.421875 L 34.558594 16.558594 Z "/>
<path style=" fill:#8D6C9F;" d="M 30.101563 59.511719 C 30.203125 59.527344 30.308594 59.527344 30.410156 59.511719 C 31.394531 59.191406 32.332031 58.730469 33.191406 58.148438 C 33.515625 57.964844 33.710938 57.609375 33.691406 57.234375 C 33.675781 56.859375 33.449219 56.527344 33.105469 56.371094 C 32.765625 56.214844 32.363281 56.265625 32.070313 56.5 C 31.367188 56.980469 30.597656 57.355469 29.789063 57.621094 C 29.238281 57.707031 28.859375 58.222656 28.945313 58.773438 C 29.03125 59.328125 29.546875 59.707031 30.101563 59.621094 Z "/>
<path style=" fill:#8D6C9F;" d="M 23 57 C 21.398438 56.195313 20.070313 54.933594 19.191406 53.371094 C 18.914063 52.890625 18.300781 52.722656 17.820313 53 C 17.339844 53.277344 17.175781 53.890625 17.449219 54.371094 C 19.121094 57.339844 22.078125 59.367188 25.449219 59.859375 L 25.589844 59.859375 C 26.140625 59.898438 26.621094 59.480469 26.660156 58.929688 C 26.699219 58.378906 26.28125 57.898438 25.730469 57.859375 C 24.78125 57.722656 23.859375 57.429688 23 57 Z "/>
<path style=" fill:#8D6C9F;" d="M 48 15.238281 C 43.773438 5.246094 33.582031 -0.882813 22.769531 0.0742188 C 11.960938 1.03125 3.003906 8.855469 0.597656 19.4375 C -1.808594 30.019531 2.886719 40.945313 12.21875 46.480469 C 11.078125 53.695313 15.296875 60.683594 22.214844 63.03125 C 29.132813 65.378906 36.738281 62.402344 40.21875 55.980469 L 41 56 C 51.183594 55.949219 59.863281 48.59375 61.589844 38.554688 C 63.3125 28.515625 57.585938 18.6875 48 15.238281 Z M 2 25 C 2 12.296875 12.296875 2 25 2 C 37.703125 2 48 12.296875 48 25 C 48 37.703125 37.703125 48 25 48 C 12.296875 48 2 37.703125 2 25 Z M 21.179688 60.621094 C 16.28125 58.1875 13.453125 52.929688 14.121094 47.5 C 17.511719 49.148438 21.230469 50.003906 25 50 C 25.441406 50 25.878906 50 26.320313 50 C 29.511719 53.148438 33.632813 55.1875 38.070313 55.820313 C 34.535156 61.554688 27.203125 63.636719 21.179688 60.621094 Z M 41 54 C 36.621094 53.996094 32.378906 52.46875 29 49.679688 C 36.117188 48.527344 42.390625 44.359375 46.207031 38.242188 C 50.027344 32.125 51.019531 24.660156 48.929688 17.761719 C 57.011719 21.503906 61.410156 30.359375 59.503906 39.0625 C 57.601563 47.761719 49.90625 53.972656 41 54 Z "/>
<path style=" fill:#8D6C9F;" d="M 45 25 C 45 19.339844 42.601563 13.941406 38.398438 10.148438 C 37.988281 9.820313 37.386719 9.867188 37.03125 10.257813 C 36.675781 10.652344 36.6875 11.253906 37.058594 11.628906 C 43.683594 17.613281 44.902344 27.554688 39.917969 34.960938 C 34.933594 42.367188 25.261719 44.980469 17.226563 41.09375 C 9.191406 37.210938 5.234375 28.007813 7.941406 19.5 C 10.648438 10.996094 19.195313 5.773438 28 7.25 C 28.550781 7.339844 29.074219 6.96875 29.164063 6.414063 C 29.257813 5.863281 28.882813 5.339844 28.328125 5.25 C 20.054688 3.851563 11.789063 7.769531 7.628906 15.058594 C 3.46875 22.347656 4.304688 31.457031 9.714844 37.871094 C 15.128906 44.285156 23.96875 46.636719 31.855469 43.757813 C 39.738281 40.882813 44.988281 33.390625 45 25 Z "/>
<path style=" fill:#8D6C9F;" d="M 31.601563 8.25 C 32.425781 8.578125 33.230469 8.964844 34 9.410156 C 34.476563 9.660156 35.0625 9.488281 35.328125 9.023438 C 35.597656 8.558594 35.453125 7.96875 35 7.679688 C 34.144531 7.183594 33.25 6.753906 32.328125 6.390625 C 31.992188 6.242188 31.601563 6.289063 31.3125 6.511719 C 31.023438 6.738281 30.878906 7.105469 30.9375 7.46875 C 31 7.832031 31.253906 8.128906 31.601563 8.25 Z "/>
<path style=" fill:#8D6C9F;" d="M 12.199219 28 C 12.074219 27.460938 11.539063 27.125 11 27.25 C 10.460938 27.375 10.125 27.910156 10.25 28.449219 C 11.199219 32.511719 13.773438 36.003906 17.371094 38.109375 C 17.519531 38.199219 17.695313 38.25 17.871094 38.25 C 18.320313 38.25 18.714844 37.949219 18.835938 37.515625 C 18.953125 37.082031 18.765625 36.621094 18.378906 36.390625 C 15.257813 34.558594 13.023438 31.527344 12.199219 28 Z "/>
<path style=" fill:#8D6C9F;" d="M 55 34 L 53 34 C 52.449219 34 52 34.449219 52 35 C 52 35.550781 52.449219 36 53 36 L 55 36 C 55.550781 36 56 35.550781 56 35 C 56 34.449219 55.550781 34 55 34 Z "/>
<path style=" fill:#8D6C9F;" d="M 41 46 C 40.449219 46 40 46.449219 40 47 L 40 49 C 40 49.550781 40.449219 50 41 50 C 41.550781 50 42 49.550781 42 49 L 42 47 C 42 46.449219 41.550781 46 41 46 Z "/>
<path style=" fill:#8D6C9F;" d="M 50.191406 42.78125 C 49.792969 42.441406 49.203125 42.464844 48.832031 42.832031 C 48.464844 43.203125 48.441406 43.792969 48.78125 44.191406 L 50.191406 45.601563 C 50.585938 45.941406 51.179688 45.917969 51.546875 45.546875 C 51.917969 45.179688 51.941406 44.585938 51.601563 44.191406 Z "/>
<path style=" fill:#8D6C9F;" d="M 52.128906 31.511719 C 52.261719 31.511719 52.390625 31.488281 52.511719 31.441406 L 54.359375 30.691406 C 54.835938 30.460938 55.054688 29.902344 54.855469 29.414063 C 54.65625 28.921875 54.109375 28.671875 53.609375 28.839844 L 51.761719 29.589844 C 51.3125 29.765625 51.054688 30.238281 51.144531 30.714844 C 51.238281 31.1875 51.65625 31.527344 52.140625 31.519531 Z "/>
<path style=" fill:#8D6C9F;" d="M 46.421875 45.75 C 46.300781 45.398438 45.996094 45.140625 45.628906 45.082031 C 45.261719 45.023438 44.894531 45.171875 44.671875 45.46875 C 44.449219 45.769531 44.410156 46.164063 44.570313 46.5 L 45.320313 48.351563 C 45.4375 48.703125 45.742188 48.960938 46.109375 49.019531 C 46.476563 49.078125 46.847656 48.929688 47.070313 48.628906 C 47.292969 48.332031 47.332031 47.933594 47.171875 47.601563 Z "/>
<path style=" fill:#8D6C9F;" d="M 54.28125 39.550781 L 52.441406 38.769531 C 52.109375 38.613281 51.71875 38.652344 51.421875 38.867188 C 51.128906 39.085938 50.972656 39.445313 51.023438 39.808594 C 51.074219 40.171875 51.316406 40.480469 51.660156 40.609375 L 53.5 41.390625 C 53.832031 41.546875 54.222656 41.507813 54.515625 41.292969 C 54.8125 41.074219 54.964844 40.714844 54.917969 40.351563 C 54.867188 39.988281 54.621094 39.679688 54.28125 39.550781 Z "/>
<path style=" fill:#8D6C9F;" d="M 22 32 C 21.449219 32 21 32.449219 21 33 C 21 33.550781 21.449219 34 22 34 L 28 34 C 28.550781 34 29 33.550781 29 33 C 29 32.449219 28.550781 32 28 32 L 26 32 L 26 15 C 26.003906 14.59375 25.757813 14.226563 25.382813 14.070313 C 25.007813 13.914063 24.574219 14 24.289063 14.289063 L 20.289063 18.289063 C 19.949219 18.6875 19.972656 19.277344 20.34375 19.648438 C 20.710938 20.015625 21.304688 20.039063 21.699219 19.699219 L 24 17.410156 L 24 32 Z "/>
</g>
</svg>